<?xml version="1.0" encoding="utf-8"?>
<!-- Generator: Adobe Illustrator 23.0.5, SVG Export Plug-In . SVG Version: 6.00 Build 0)  -->
<svg version="1.1" id="Layer_2" xmlns="http://www.w3.org/2000/svg" xmlns:xlink="http://www.w3.org/1999/xlink" x="0px" y="0px"
	 viewBox="0 0 487.1 481.8" style="enable-background:new 0 0 487.1 481.8;" xml:space="preserve">
<style type="text/css">
	.st0{fill:none;stroke:#FFFFFF;stroke-miterlimit:10;}
	.st1{fill:#C65328;}
	.st2{fill:#EAE3CE;}
	.st3{fill:#F26A39;}
	.st4{fill:#F26738;}
</style>
<path class="st0" d="M246.3,461.7l219.3-162.4l-45-94.5c30.4-30.9,44.5-205.3,45-181.7c-60.6-15.6-154.1,55-154.1,55
	c-33.9-22-65.8-20.6-65.8-20.6s-30.5-1.4-64.5,20.6c0,0-93.6-70.6-154.1-55c0,0-2.8,133,45,181.7l-45,94.5L246.3,461.7"/>
<path class="st1" d="M150.9,104.8l-67,83.5c0,0-39.4-105.5-25.7-111.9C72,70,133.5,85.6,150.9,104.8z"/>
<path class="st1" d="M58.3,76.4c16.2-7.9,111.8,8.1,92.7,28.4l-67,83.5"/>
<path class="st1" d="M443.9,77.5c-15.6-7.7-121.3,1.4-92.7,28.4l55.9,75.3"/>
<path class="st2" d="M246.3,461.7l-46.6-34.5c0,0,2.2-4.2,4.7-12.2c6.4-20.4,18.7-68.2-4.7-127.7C164.9,198.7,83.9,188.1,84,188.3
	c0,0,0,0-11.9,16.5l-45,94.5l167.6,124.1"/>
<path class="st2" d="M242.2,464.9l45.4-33.6c-1,0.7-0.7-4.7-3.5-13c-7.4-21.9-22-64.3,6-126.1c38.7-85.5,117.5-116.6,120.4-110.3
	c1.3,0.4,0.1,7.4,10.1,23.4l40.9,97.3L293.9,426.5"/>
<path d="M201.3,427.4l40-6.2c46.2,10,46.2,10,46.2,10l-40.6,24.9"/>
<path class="st4" d="M246,57.6l0.6,368.3l-46.6,1.3c0,0,25.9-72.8,0-139.8S92.5,189.9,92.5,189.9l-8.3-1.6l69.1-88.1
	c0,0-29.6-32.1-94.8-23.9c0.8,0.1,3.4,60.5,25.8,110.8l-12,17.7c0,0-56-100-45-181.7c0,0,95.4,9.2,154.1,55
	C181.5,78.2,219.1,54.2,246,57.6z"/>
<path class="st4" d="M245.2,57.7c0,0,51.6,2.7,66.3,20.2c0,0,114.7-74.3,154.1-55c0,0-0.9,132.1-45,181.7l-13.6-23.5l36.8-103.8
	c0,0-65.4-11.2-98.4,19.1l61.7,84.7c0.5,0.9-83.8,42.9-112.4,103.3c-27.5,58.1-24.8,78-7.2,146.7l-41.1-5.3"/>
<ellipse cx="185.1" cy="337.9" rx="10.9" ry="12.9"/>
<ellipse cx="303.1" cy="339.3" rx="10.8" ry="14.3"/>
</svg>
