<?xml version="1.0" encoding="utf-8"?>
<!-- Generator: Adobe Illustrator 23.0.5, SVG Export Plug-In . SVG Version: 6.00 Build 0)  -->
<svg version="1.1" id="Layer_1" xmlns="http://www.w3.org/2000/svg" xmlns:xlink="http://www.w3.org/1999/xlink" x="0px" y="0px"
	 viewBox="0 0 612 792" style="enable-background:new 0 0 612 792;" xml:space="preserve">
<style type="text/css">
	.st0{fill:#1A211B;}
	.st1{fill:#650820;}
	.st2{fill:#8F4D36;}
	.st3{fill:none;stroke:#F5AB2B;stroke-miterlimit:10;}
	.st4{fill:#F8981D;}
	.st5{fill:#F5AB2B;}
</style>
<rect class="st0" width="612" height="792"/>
<g>
	<g>
		<path class="st1" d="M111.7,399.9v-58.8c0,0-0.5-6,0-33.3c0.1-3.9-3.7-27.5,10.3-36.4c0,0-28.5-50.4,0-50.8c0,0-26.2-38,15.6-41.9
			c0,0-16.7-40.7,19.3-40.3c0,0,0-42.7,34.5-28.3c0,0-0.4-38,33-23.7c0,0,13.9-36.8,38.4-5.2c0.5,0.6,1,1.3,1.5,1.9
			c0,0,7.6-27.4,33-21.2c0,0,1.3-17.6,7.1-17.2c0,0,6.6,5.9,6.2,16c0,0,22.4-9.3,36.4,21.3c0,0,24.7-34.9,36,5.4
			c0,0,34.9-15.9,36.8,21.7c0,0,34.5-12,33.4,28.7c0,0,34.9,2.3,20.9,39.6c0,0,37.6,12.4,14.4,41.9c0,0,22.8,13.6,2.7,39.2
			c0,0-6.1,9.7,2.7,26c0,0,17.8,19.8,3,37.6c0,0-6.8,6.2-1.5,13.2c0,0,7.2,3.1,2.7,13.6c-4.6,10.5,0,146.6,0,146.6
			S282.4,655.2,111.7,399.9z"/>
	</g>
	<path class="st2" d="M111.8,393.5l4.1,176.2c0,0.2,0.1,0.3,0.2,0.4c1.6,1.2,14.7,5.5,2.6,12.5c-11.8,6.8,2.4,9.7,5.7,9.5
		c0.3,0,0.6,0.2,0.6,0.5V687c0,0.3,0.2,0.5,0.5,0.5h364.3c0.3,0,0.5-0.2,0.5-0.5v-93.3c0-0.2,0.1-0.4,0.4-0.5
		c2.7-0.8,18.4-6,2.2-13.8c-0.2-0.1-0.3-0.3-0.3-0.5c0.1-1.3,1.1-5.4,7-5.9c0.3,0,0,0.3,0,0l-1-79.2c0-0.4-0.5-0.7-0.8-0.5
		c-14.7,9.7-225.9,153.2-385.1-100.1C112.5,392.8,111.8,393,111.8,393.5z"/>
	<line class="st2" x1="111.6" y1="385.4" x2="115.8" y2="563.9"/>
</g>
<path class="st3" d="M173.6,352.7c0-62.7,26.2-113.4,58.5-113.4c0,0,17.4-1.7,27.6,0v5.9c0,0-39.6,19.8-50.1,74.7l-0.8,3.8"/>
<path class="st3" d="M236.8,334c0,20.7-28.3,37.5-63.2,37.5c-12.4,0.7-20-4.5-20-4.5c-17.4-8,0-9.7,0-9.7
	c29.5,0,53.4-14.3,53.4-31.9C207,325.3,222.6,308.7,236.8,334z"/>
<path class="st3" d="M204.1,335.7c0,0,19.5,1.7,20.5,20.4l-4.3,3.1c0,0,2.7-14.5-16.2-19.4l-2-1.2L204.1,335.7z"/>
<path class="st3" d="M186.7,281.1c0,0,17.7,21.7-8.8,28.8"/>
<path class="st3" d="M190.3,273.8c-0.5-0.9,30.1,30.2-14.2,46.1"/>
<ellipse transform="matrix(0.9047 -0.4261 0.4261 0.9047 -121.0959 107.5455)" class="st3" cx="179.8" cy="324.4" rx="4.1" ry="3.9"/>
<ellipse transform="matrix(0.9047 -0.4261 0.4261 0.9047 -118.6894 110.6445)" class="st3" cx="187.9" cy="320.6" rx="4.1" ry="3.9"/>
<ellipse transform="matrix(0.9047 -0.4261 0.4261 0.9047 -115.6911 113.8843)" class="st3" cx="196.7" cy="315.5" rx="4.1" ry="3.9"/>
<ellipse transform="matrix(0.9047 -0.4261 0.4261 0.9047 -111.9658 115.7047)" class="st3" cx="202.6" cy="308.1" rx="4.1" ry="3.9"/>
<ellipse transform="matrix(0.9047 -0.4261 0.4261 0.9047 -107.4959 115.8324)" class="st3" cx="205.1" cy="298.2" rx="4.1" ry="3.9"/>
<ellipse transform="matrix(0.9047 -0.4261 0.4261 0.9047 -103.4129 114.8449)" class="st3" cx="205" cy="288.6" rx="4.1" ry="3.9"/>
<ellipse transform="matrix(0.9047 -0.4261 0.4261 0.9047 -100.0952 112.5766)" class="st3" cx="201.6" cy="280" rx="4.1" ry="3.9"/>
<ellipse transform="matrix(0.9047 -0.4261 0.4261 0.9047 -96.9808 109.6985)" class="st3" cx="196.7" cy="271.6" rx="4.1" ry="3.9"/>
<path class="st3" d="M174.9,331.3c66-19.8,21.4-68.3,21.4-68.3"/>
<path class="st3" d="M247.7,238.5c0,0-33.2,22.8-39.2,44.9"/>
<path class="st3" d="M202.5,317.3c0,0-6.1,12.1-26.4,22.5H174l-0.4,15c0,0,33-17,33-25.7l0.4-3.9"/>
<ellipse class="st3" cx="230" cy="244.7" rx="4.1" ry="5.2"/>
<ellipse class="st3" cx="222.9" cy="251.7" rx="4.1" ry="5.2"/>
<ellipse class="st3" cx="215.7" cy="258.8" rx="4.1" ry="5.2"/>
<ellipse class="st3" cx="209.3" cy="267.7" rx="4.1" ry="5.2"/>
<ellipse class="st3" cx="203.9" cy="324.4" rx="4.1" ry="5.2"/>
<ellipse class="st3" cx="197.6" cy="331.1" rx="4.1" ry="5.2"/>
<ellipse class="st3" cx="190.3" cy="336.5" rx="4.1" ry="5.2"/>
<ellipse class="st3" cx="185.2" cy="341.7" rx="4.1" ry="5.2"/>
<ellipse class="st3" cx="178.7" cy="345.7" rx="4.1" ry="5.2"/>
<ellipse class="st3" cx="248.2" cy="243.6" rx="2.7" ry="2.6"/>
<ellipse class="st3" cx="243.7" cy="247.6" rx="2.7" ry="2.6"/>
<ellipse class="st3" cx="239.7" cy="251.9" rx="2.7" ry="2.6"/>
<ellipse class="st3" cx="235.7" cy="256.2" rx="2.7" ry="2.6"/>
<ellipse class="st3" cx="231.7" cy="260.5" rx="2.7" ry="2.6"/>
<ellipse class="st3" cx="227.3" cy="264.4" rx="2.7" ry="2.6"/>
<ellipse class="st3" cx="223.5" cy="269" rx="2.7" ry="2.6"/>
<ellipse class="st3" cx="220.1" cy="273.2" rx="2.7" ry="2.6"/>
<ellipse class="st3" cx="217.4" cy="277.8" rx="2.7" ry="2.6"/>
<ellipse class="st3" cx="214.7" cy="282.2" rx="2.7" ry="2.6"/>
<ellipse class="st3" cx="212" cy="286" rx="2.7" ry="2.6"/>
<path class="st3" d="M248.2,191.1v8.3c0,0,5.8,6.4,8.1-2c0.4-1.6,0.7-3.6,0.8-6.3c0,0-10.9-1.6-13.4,1.4c-3.7,4.5-7.3-5.5,1.8-8.3
	c0,0,11.3-3.1,16.3,0c0,0,6.6,6.7,0,6.6l-2.5,0.1l-1,0.1l-0.8,0"/>
<path class="st3" d="M266.4,199.4c-1.2-1.4,12.8,14,15.2,26c0.3,1.3,0.9,2.4,1.1,3.8c0.1,0.8-0.2,1.6-0.2,2.4c0,1,0.1,2-0.3,3
	c-1.2,2.8-2.2,5.4-4.6,7.4c-1.7,1.5-3.8,2.5-5.8,3.7l4,3.1c0,0,2.3,2.1,2.4,2.1c1.1,1.1,2.6-0.1,3.3-0.4c1.3-0.6,2.3-1.8,3.4-2.6
	c1.2-0.9,2.5-1.7,3.4-2.9c1-1.5,1.2-3.4,1.4-5.1c0.4-2.8-0.2-5.5,0-8.3c0.2-1.9-0.6-3.7-1.1-5.5c-0.4-1.4-1.1-2.8-1.3-4.2
	c-1.1-8-6-14.6-12.8-18.9c-4.6-2.9-9.8-4.8-15.2-5.7c-2.1-0.4-3.9,1.9-3.7,3.9c0.1,1.2,1.5,1.9,2.4,2.5c2.9,2.1,4.8,5.4,6.4,8.6
	c1.9,3.6,3.6,7.3,5.9,10.6c0.9,1.2,1.6,2.9,2.4,4.2c0.8,1.3,1.5,2.4,1.4,3.9c-0.1,1.2-0.6,2.4-1.2,3.4c-1.2,2.1-2.7,4-4.2,5.9
	c-0.7,0.9-1.8,1.9-2.9,1.6c-1.2-0.3-1.5-1.8-1.5-3c-0.1-3.4,0.4-6.9,0.2-10.3c-0.4-8.1-4.4-15.5-8.4-22.5c-0.6-1.2-1.6-3.8-1.4-5.1"
	/>
<path class="st3" d="M259.7,239.3l9.6,4.3l4.3,4l4.6,3.8l-1.5,2.2c0,0-16.3,9.5-18.5,9.5c0,0-3.6,1.3-4.5,3.9
	c-0.9,2.6-1.6,2.3,0,6.1c1.6,3.8,3.3,8,3.3,8l0.9,4.9c0,0-1.1,1.4-1.5,2.6s-3.7,2.4-3.7,2.4l-7.2,2.6l-4.5-0.9v-2.9
	c0,0,4.9-1,5.4-1.2c0.5-0.2,3.8-2.6,3.8-2.6l-0.9-6.4c0,0-8.9-8.1-9.5-13.2c-0.6-5.2,2.6-8.5,2.6-8.5"/>
<path class="st3" d="M248.4,252.8c0,0,11.8,4.9,11.2,9.9"/>
<line class="st3" x1="259.7" y1="243.6" x2="264.8" y2="241.7"/>
<path class="st3" d="M422.9,377.1c-8.4,5.5-19.9,3.4-25.6-4.7c-4.6-6.4-2.8-15.2,3.9-19.6c5.4-3.5,12.7-2.2,16.4,3
	c2.9,4.1,1.8,9.7-2.5,12.5c-3.5,2.2-8.1,1.4-10.5-1.9c-1.9-2.6-1.2-6.2,1.6-8c2.2-1.4,5.2-0.9,6.7,1.2c1.2,1.7,0.7,4-1,5.1
	c-1.4,0.9-3.3,0.6-4.3-0.8c-0.8-1.1-0.5-2.5,0.7-3.3"/>
<path class="st3" d="M310,313.4c-2.4-5.4-1-10.6,3.5-12.5c3.6-1.5,7.7,0,9.3,3.4c1.3,2.7,0,5.9-2.8,7.1c-2.3,1-4.9,0-5.9-2.2
	c-0.8-1.7,0-3.8,1.8-4.5c1.4-0.6,3.2,0,3.8,1.4c0.5,1.1,0,2.4-1.2,2.9c-0.9,0.4-2,0-2.4-0.9c-0.3-0.7,0-1.5,0.7-1.9"/>
<path class="st3" d="M347.1,313.2c-2-4.2-0.8-10.3,3.6-12.3c3.5-1.5,7.7,0,9.3,3.4c1.3,2.7,0,5.9-2.8,7.1c-2.3,1-4.9,0-5.9-2.2
	c-0.8-1.7,0-3.8,1.8-4.5c1.4-0.6,3.2,0,3.8,1.4c0.5,1.1,0,2.4-1.2,2.9c-0.9,0.4-2,0-2.4-0.9c-0.3-0.7,0-1.5,0.7-1.9"/>
<path class="st3" d="M328.6,313.4c-2-4.2-0.3-10.6,4.1-12.5c3.5-1.5,7.7,0,9.3,3.4c1.3,2.7,0,5.9-2.8,7.1c-2.3,1-4.9,0-5.9-2.2
	c-0.8-1.7,0-3.8,1.8-4.5c1.4-0.6,3.2,0,3.8,1.4c0.5,1.1,0,2.4-1.2,2.9c-0.9,0.4-2,0-2.4-0.9c-0.3-0.7,0-1.5,0.7-1.9"/>
<path class="st3" d="M366.8,295.6c-3.9,2.8-9.4,2.1-12.3-1.6c-2.4-2.9-1.8-7.2,1.3-9.4c2.5-1.8,6-1.3,7.9,1c1.5,1.9,1.1,4.6-0.9,6
	c-1.6,1.2-3.8,0.9-5-0.6c-1-1.2-0.7-2.9,0.5-3.9c1-0.7,2.5-0.6,3.2,0.4c0.6,0.8,0.5,1.9-0.3,2.5c-0.6,0.5-1.6,0.4-2.1-0.3"/>
<path class="st3" d="M366.8,279.1c-3.9,2.8-9.4,2.1-12.3-1.6c-2.4-2.9-1.8-7.2,1.3-9.4c2.5-1.8,6-1.3,7.9,1c1.5,1.9,1.1,4.6-0.9,6
	c-1.6,1.2-3.8,0.9-5-0.6c-1-1.2-0.7-2.9,0.5-3.9c1-0.7,2.5-0.6,3.2,0.4c0.6,0.8,0.5,1.9-0.3,2.5c-0.6,0.5-1.6,0.4-2.1-0.3"/>
<path class="st3" d="M366.8,264c-3.9,2.8-9.4,2.1-12.3-1.6c-2.4-2.9-1.8-7.2,1.3-9.4c2.5-1.8,6-1.3,7.9,1c1.5,1.9,1.1,4.6-0.9,6
	c-1.6,1.2-3.8,0.9-5-0.6c-1-1.2-0.7-2.9,0.5-3.9c1-0.7,2.5-0.6,3.2,0.4c0.6,0.8,0.5,1.9-0.3,2.5c-0.6,0.5-1.6,0.4-2.1-0.3"/>
<path class="st3" d="M366.8,248.8c-3.9,2.8-9.4,2.1-12.3-1.6c-2.4-2.9-1.8-7.2,1.3-9.4c2.5-1.8,6-1.3,7.9,1c1.5,1.9,1.1,4.6-0.9,6
	c-1.6,1.2-3.8,0.9-5-0.6c-1-1.2-0.7-2.9,0.5-3.9c1-0.7,2.5-0.6,3.2,0.4c0.6,0.8,0.5,1.9-0.3,2.5c-0.6,0.5-1.6,0.4-2.1-0.3"/>
<path class="st3" d="M293,266.5c0.6,0.5,1.5,0.4,2-0.1c0.6-0.7,0.6-1.7-0.2-2.3c-0.9-0.8-2.3-0.7-3.1,0.2c-1,1.1-0.9,2.7,0.3,3.7
	c1.4,1.2,3.6,1,4.8-0.3c1.5-1.7,1.4-4.3-0.4-5.7c-2.2-1.8-5.6-1.6-7.5,0.5c-2.4,2.6-2.1,6.6,0.6,9c3.5,2.9,8.7,2.6,11.7-0.7
	c3.8-4.1,3.3-10.4-1-14c-5.4-4.5-13.6-4-18.3,1.2c-5.9,6.4-5.2,16.2,1.5,21.9c8.4,7,21.2,6.2,28.6-1.8l1.6-2.8l-0.1-17.4
	c0,0-3.7-7.1-13.1-9c0,0-6.5-1.1-11.8,0c-5.3,1.1-5.3,1.1-5.3,1.1l-2.6,2.4l-0.6-0.2l-3.4,1.6l-14.4,8.1"/>
<path class="st3" d="M392.8,254.8c-1.5,4.3-7.1,8-11.6,6.6c-3.6-1.1-5.6-4.9-4.4-8.3c1-2.8,4.1-4.2,7-3.3c2.3,0.7,3.6,3.1,2.8,5.3
	c-0.6,1.8-2.6,2.7-4.5,2.1c-1.5-0.5-2.3-2-1.8-3.4c0.4-1.1,1.7-1.7,2.9-1.4c0.9,0.3,1.5,1.3,1.1,2.2c-0.3,0.7-1.1,1.1-1.8,0.9"/>
<path class="st3" d="M394.2,267.5c-1.5,4.3-7.3,8.7-11.8,7.3c-3.6-1.1-5.6-4.9-4.4-8.3c1-2.8,4.1-4.2,7-3.3c2.3,0.7,3.6,3.1,2.8,5.3
	c-0.6,1.8-2.6,2.7-4.5,2.1c-1.5-0.5-2.3-2-1.8-3.4c0.4-1.1,1.7-1.7,2.9-1.4c0.9,0.3,1.5,1.3,1.1,2.2c-0.3,0.7-1.1,1.1-1.8,0.9"/>
<path class="st3" d="M399.9,280c-1.5,4.3-6.4,8.3-10.9,6.9c-3.6-1.1-5.6-4.9-4.4-8.3c1-2.8,4.1-4.2,7-3.3c2.3,0.7,3.6,3.1,2.8,5.3
	c-0.6,1.8-2.6,2.7-4.5,2.1c-1.5-0.5-2.3-2-1.8-3.4c0.4-1.1,1.7-1.7,2.9-1.4c0.9,0.3,1.5,1.3,1.1,2.2c-0.3,0.7-1.1,1.1-1.8,0.9"/>
<path class="st3" d="M411.6,290.9c-1.5,4.3-6.4,6.6-10.9,5.2c-3.6-1.1-5.6-4.9-4.4-8.3c1-2.8,4.1-4.2,7-3.3c2.3,0.7,3.6,3.1,2.8,5.3
	c-0.6,1.8-2.6,2.7-4.5,2.1c-1.5-0.5-2.3-2-1.8-3.4c0.4-1.1,1.7-1.7,2.9-1.4c0.9,0.3,1.5,1.3,1.1,2.2c-0.3,0.7-1.1,1.1-1.8,0.9"/>
<path class="st3" d="M427.2,290.9c-1.5,4.3-6.4,6.6-10.9,5.2c-3.6-1.1-5.6-4.9-4.4-8.3c1-2.8,4.1-4.2,7-3.3c2.3,0.7,3.6,3.1,2.8,5.3
	c-0.6,1.8-2.6,2.7-4.5,2.1c-1.5-0.5-2.3-2-1.8-3.4c0.4-1.1,1.7-1.7,2.9-1.4c0.9,0.3,1.5,1.3,1.1,2.2c-0.3,0.7-1.1,1.1-1.8,0.9"/>
<path class="st3" d="M393.3,247.6c0,0-6,44.3,27.5,34.6h2.2l-2.2-6.5c0,0-23.2,11-23.2-25.5L393.3,247.6z"/>
<path class="st3" d="M313.4,238.5l0.4,61.8l39.2,0v-65.8h-5.5v61l-33.8,0.1h-3l-4.1,18.4c0,0-11.7,31.3-31,38.7c0,0-19.1,3.9-25.9-7
	c-5.6-8.9-9.6-18.5-2.7-26.6c5.5-6.4,15.5-7.4,22.3-2.1c5.4,4.2,6.2,11.8,1.7,17c-3.5,4.1-9.9,4.7-14.2,1.3c-3.5-2.7-4-7.6-1.1-10.9
	c2.3-2.6,6.4-3,9.1-0.8c2.2,1.7,2.5,4.9,0.7,7c-1.5,1.7-4.1,1.9-5.8,0.5c-1.4-1.1-1.6-3.1-0.5-4.5c0.9-1.1,2.6-1.2,3.7-0.3"/>
<path class="st3" d="M236.8,336.5c0,0,4.5,9.5,17.3,16.2c0,0,6.6,4.2,16.3,4.4c0.8,0,1.6,0,2.4,0l-5.1,8.5c0,0-25.2-3.8-31.9-21.2
	L236.8,336.5z"/>
<polygon class="st3" points="368.2,236.7 376.5,236.7 375.5,324.4 301.8,324.4 306.6,314 366.8,312.8 366.8,235.6 "/>
<rect x="314.5" y="236.7" class="st3" width="29.1" height="5"/>
<rect x="314.5" y="241.9" class="st3" width="29.1" height="5"/>
<rect x="314.5" y="247.1" class="st3" width="29.1" height="5"/>
<rect x="314.5" y="252.3" class="st3" width="29.1" height="5"/>
<rect x="314.5" y="257.5" class="st3" width="29.1" height="5"/>
<rect x="314.5" y="262.7" class="st3" width="29.1" height="5"/>
<rect x="314.5" y="267.9" class="st3" width="29.1" height="5"/>
<rect x="314.5" y="273.1" class="st3" width="29.1" height="5"/>
<rect x="314.5" y="278.4" class="st3" width="29.1" height="5"/>
<rect x="314.5" y="283.6" class="st3" width="29.1" height="5"/>
<path class="st3" d="M231.7,377.6c0,0,3,10.9-8.8,10.9c0,0-4.6-0.2-8.2-3.2c-3.8-3.2-6.5-9.6-1.4-22.2c0,0,12-7.9,22.4-3.9
	c0,0,20.9,9.1,15.2,35.7c-0.1,0.6-0.3,1.3-0.5,1.9c-7.1,28.1-42.1,21.6-42.1,21.6s-31.9-13.6-32.3-44.9v-2"/>
<path class="st3" d="M214.7,385.3c0,0-5.4,18.8-23.4,21.4"/>
<path class="st3" d="M263.8,261c4.4,2.7,6.7,10.1,3.9,14.3c-2.2,3.4-6.9,4.4-10.5,2.2c-2.8-1.7-3.6-5.3-1.8-8
	c1.4-2.2,4.4-2.8,6.7-1.4c1.8,1.1,2.3,3.4,1.2,5.1c-0.9,1.4-2.8,1.8-4.3,0.9c-1.2-0.7-1.5-2.2-0.8-3.3c0.6-0.9,1.8-1.1,2.7-0.6
	c0.7,0.5,1,1.4,0.5,2.1"/>
<path class="st3" d="M287,246.5c0,0,10.9-7,27.5-9.7c0,0,31.7-8.2,62,0c0,0,36,15.8,44.2,39c0,0,6.8,11.1,8.2,27.5
	c0,0,1.6,30.1-2.8,53.6c-0.1,0.4-0.2,0.8-0.2,1.2c-4.6,23.7-3,48.6-3,48.6l1.4,5.2c0,0,9.3,2.9,0.8,9.4c0,0-9.4,7.3-16.3,7.8
	c0,0-15.9,2.6-20.2,0c-4.4-2.6-4.3-3.6-4.3-3.6v-9.6c0,0,0.5-7.5-1.7-16.1c-2.2-8.6-1.9-14.3-12-30.4c0,0-4.3-11.9-25-16.8
	c-2.7-0.6-5.7-1.2-9-1.6c0,0-34.7-7.9-48.9,26.7l-2.5,6v21.6l2.9,6c-1.3-0.4,12.2,2.2,2.1,10.4c0,0-2.4,2.9-11.8,4.7
	c-9.4,1.8-27.2-2.3-27.2-2.3s-6.6-3.9,0-8.1l-2.7-2.1v-10.7"/>
<path class="st3" d="M345.6,352.4c0,0,12.5,8.6,12.2,19.1c0,0-11.3,41.2-11.4,41.9c-0.1,0.4-0.1,0.8-0.2,1.1
	c-0.8,5.5-0.7,9.6,1,10.4c6.5,3.1,8.4,3.9,8.4,3.9s18.4,6.8,28.7-1.8v-6.5c0,0-21.7,8.6-31.3-1.4l-6.6-5.7"/>
<path class="st3" d="M315.8,137.3c0,0,3.4-19.2,24.6-15.9c0,0,22.3-3.4,26.4,14.3"/>
<path class="st3" d="M298.2,137.3H387c0,0,8.4,7-1.5,10.7c0,0-65.4,0-83.7,0c-1.6,0-2.8,0-3.6,0C298.2,147.9,287.8,143,298.2,137.3z
	"/>
<g>
	<g>
		<path class="st3" d="M301.8,147.9c0,0-4.7,6.8,3.2,9.9h14.2c0,0,7.7-2.3,4.1-8.6"/>
		<path class="st3" d="M305,157.8c0,0-1.6,5.7,1.6,6.2h10.5c0,0,4.2-0.3,2.1-6.2"/>
		<path class="st3" d="M308.3,166.1v26.1c0,1.1,1,2,2.1,2h3.2c1.2,0,2.1-0.9,2.1-2v-26.1c0-1.1-1-2-2.1-2h-3.2
			C309.2,164.1,308.3,165,308.3,166.1z"/>
		<path class="st3" d="M308.3,194.2c0,0-6.9,1.3-2.5,7.5h12.5c0,0,4.6-4.2-1.2-7.5H308.3z"/>
		<path class="st3" d="M305.8,201.8c0,0-8.3,1.8-4,6.5l1.4,1.6h22.2c0,0,2.9-6.2-5.4-8.1H305.8z"/>
		<path class="st3" d="M359.3,148.2c0,0-4.7,6.8,3.2,9.9h14.2c0,0,7.7-2.3,4.1-8.6"/>
		<path class="st3" d="M362.4,158.1c0,0-1.6,5.7,1.6,6.2h10.5c0,0,4.2-0.3,2.1-6.2"/>
		<path class="st3" d="M365.8,166.4v26.1c0,1.1,1,2,2.1,2h3.2c1.2,0,2.1-0.9,2.1-2v-26.1c0-1.1-1-2-2.1-2h-3.2
			C366.7,164.3,365.8,165.2,365.8,166.4z"/>
		<path class="st3" d="M365.8,194.5c0,0-6.9,1.3-2.5,7.5h12.5c0,0,4.6-4.2-1.2-7.5H365.8z"/>
		<path class="st3" d="M363.3,202c0,0-8.3,1.8-4,6.5l1.4,1.6h22.2c0,0,2.9-6.2-5.4-8.1H363.3z"/>
	</g>
</g>
<path class="st3" d="M300.6,209.8l82.3,0.3c0,0,6.1,4.9,0.5,9.4h-85.2C298.2,219.5,295.6,210.1,300.6,209.8z"/>
<path class="st3" d="M298.2,219.5c0,0-16.4,7.9,0,15.1l30.9-0.3"/>
<path class="st3" d="M366.8,234.5h23.5c0,0,11.4-8.3-1.2-13.5l-5.8-1.6"/>
<path class="st3" d="M295.3,233.1c0,0-4.4,2-5.5,5"/>
<path class="st3" d="M391.9,233.1c0,0,7.8,4.1,2.7,13.8"/>
<ellipse class="st3" cx="284.6" cy="409" rx="1.7" ry="1.7"/>
<ellipse class="st3" cx="281.4" cy="410.7" rx="1.7" ry="1.7"/>
<ellipse class="st3" cx="278" cy="411.6" rx="1.7" ry="1.7"/>
<ellipse class="st3" cx="274.2" cy="411.6" rx="1.7" ry="1.7"/>
<ellipse class="st3" cx="270.2" cy="411.6" rx="1.7" ry="1.7"/>
<ellipse class="st3" cx="266.1" cy="411.6" rx="1.7" ry="1.7"/>
<ellipse class="st3" cx="261.9" cy="411.1" rx="1.7" ry="1.7"/>
<ellipse class="st3" cx="257.9" cy="411.1" rx="1.7" ry="1.7"/>
<ellipse class="st3" cx="254" cy="410.7" rx="1.7" ry="1.7"/>
<ellipse class="st3" cx="250.2" cy="410" rx="1.7" ry="1.7"/>
<ellipse class="st3" cx="352.6" cy="412.6" rx="1.7" ry="1.7"/>
<ellipse class="st3" cx="356.1" cy="414.8" rx="1.7" ry="1.7"/>
<ellipse class="st3" cx="359.5" cy="416.9" rx="1.7" ry="1.7"/>
<ellipse class="st3" cx="363.2" cy="418.1" rx="1.7" ry="1.7"/>
<ellipse class="st3" cx="367.1" cy="418.5" rx="1.7" ry="1.7"/>
<ellipse class="st3" cx="371" cy="418.5" rx="1.7" ry="1.7"/>
<ellipse class="st3" cx="374.4" cy="418.5" rx="1.7" ry="1.7"/>
<ellipse class="st3" cx="377.9" cy="417.7" rx="1.7" ry="1.7"/>
<ellipse transform="matrix(0.6497 -0.7602 0.7602 0.6497 -183.0207 435.8164)" class="st3" cx="381.4" cy="416.5" rx="1.7" ry="1.7"/>
<ellipse class="st3" cx="349.6" cy="410.3" rx="1.7" ry="1.7"/>
<ellipse class="st3" cx="201.5" cy="342.6" rx="1.7" ry="1.7"/>
<ellipse class="st3" cx="204.9" cy="344.6" rx="1.7" ry="1.7"/>
<ellipse class="st3" cx="208" cy="346.5" rx="1.7" ry="1.7"/>
<ellipse class="st3" cx="211" cy="348.8" rx="1.7" ry="1.7"/>
<ellipse class="st3" cx="213.3" cy="351.6" rx="1.7" ry="1.7"/>
<ellipse class="st3" cx="215.4" cy="354.9" rx="1.7" ry="1.7"/>
<ellipse class="st3" cx="216.6" cy="358.5" rx="1.7" ry="1.7"/>
<ellipse class="st3" cx="420.6" cy="409.3" rx="1.7" ry="1.7"/>
<ellipse class="st3" cx="386.4" cy="415.3" rx="1.7" ry="1.7"/>
<ellipse class="st3" cx="390.2" cy="415.9" rx="1.7" ry="1.7"/>
<ellipse class="st3" cx="394.1" cy="416.2" rx="1.7" ry="1.7"/>
<ellipse class="st3" cx="398.2" cy="416.5" rx="1.7" ry="1.7"/>
<ellipse class="st3" cx="402" cy="416.2" rx="1.7" ry="1.7"/>
<ellipse class="st3" cx="405.9" cy="415.6" rx="1.7" ry="1.7"/>
<ellipse class="st3" cx="409.6" cy="414.6" rx="1.7" ry="1.7"/>
<ellipse class="st3" cx="413.4" cy="412.9" rx="1.7" ry="1.7"/>
<ellipse class="st3" cx="417.2" cy="411.3" rx="1.7" ry="1.7"/>
<line class="st3" x1="296.5" y1="148.2" x2="296.5" y2="169.8"/>
<line class="st3" x1="298.5" y1="148.2" x2="298.5" y2="169.8"/>
<line class="st3" x1="300.6" y1="148.2" x2="300.6" y2="169.8"/>
<line class="st3" x1="385.5" y1="150.1" x2="385.5" y2="171.7"/>
<line class="st3" x1="383.4" y1="150.4" x2="383.4" y2="172"/>
<line class="st3" x1="380.9" y1="150.1" x2="380.9" y2="171.7"/>
<line class="st3" x1="379" y1="150.1" x2="379" y2="171.7"/>
<line class="st3" x1="356.7" y1="148.2" x2="356.7" y2="169.8"/>
<line class="st3" x1="324.2" y1="149.2" x2="324.2" y2="170.8"/>
<line class="st3" x1="325.9" y1="149.2" x2="325.9" y2="170.8"/>
<line class="st3" x1="327.6" y1="149.2" x2="327.6" y2="170.8"/>
<line class="st3" x1="329.3" y1="149.2" x2="329.3" y2="170.8"/>
<line class="st3" x1="330.9" y1="149.2" x2="330.9" y2="170.8"/>
<line class="st3" x1="332.6" y1="149.2" x2="332.6" y2="170.8"/>
<line class="st3" x1="334.3" y1="149.2" x2="334.3" y2="170.8"/>
<line class="st3" x1="336" y1="149.2" x2="336" y2="170.8"/>
<line class="st3" x1="337.7" y1="149.2" x2="337.7" y2="170.8"/>
<line class="st3" x1="339.4" y1="149.2" x2="339.4" y2="170.8"/>
<line class="st3" x1="341.1" y1="149.2" x2="341.1" y2="170.8"/>
<line class="st3" x1="342.7" y1="149.2" x2="342.7" y2="170.8"/>
<line class="st3" x1="344.4" y1="149.2" x2="344.4" y2="170.8"/>
<line class="st3" x1="346.1" y1="149.2" x2="346.1" y2="170.8"/>
<line class="st3" x1="347.8" y1="149.2" x2="347.8" y2="170.8"/>
<line class="st3" x1="349.5" y1="149.2" x2="349.5" y2="170.8"/>
<line class="st3" x1="351.2" y1="149.2" x2="351.2" y2="170.8"/>
<line class="st3" x1="352.8" y1="149.2" x2="352.8" y2="170.8"/>
<line class="st3" x1="354.5" y1="149.2" x2="354.5" y2="170.8"/>
<line class="st3" x1="356.2" y1="149.2" x2="356.2" y2="170.8"/>
<rect x="341.8" y="179.7" class="st3" width="7.6" height="3.6"/>
<rect x="341.8" y="183.6" class="st3" width="7.6" height="3.6"/>
<rect x="341.8" y="187.4" class="st3" width="7.6" height="3.6"/>
<rect x="341.8" y="191.3" class="st3" width="7.6" height="3.6"/>
<rect x="341.8" y="195.1" class="st3" width="7.6" height="3.6"/>
<rect x="341.8" y="199" class="st3" width="7.6" height="3.6"/>
<rect x="341.8" y="202.9" class="st3" width="7.6" height="3.6"/>
<rect x="341.8" y="206.7" class="st3" width="7.6" height="3.6"/>
<path class="st3" d="M346.1,179.1v-5.5h5.6c0,0,2-0.8,2.3,2.7c0.3,3.5,0,32.1,0,32.1l0.5,1.3h5.4"/>
<path class="st3" d="M362,196.3c0,0-2.5-5-7.5-7.1"/>
<path class="st3" d="M345.7,175.8c0,0-6.5-1.7-5.7,3.4c0,0,2,13.2-1.4,18.4c0,0-3.6,9.3-7.7,10.4h-3.4c0,0-2.9-0.8,0-4.3
	c0,0,4.5-3.2,6-6.1c0,0,4.7-2.9,5-8.3c0.3-5.4,0.3-5.4,0.3-5.4s0.5-1.5-1.2-4.1c0,0-2.8-2.5-1.7,3.1l0.6,6.4c0,0,0.8,2.3-1.5,3.9
	c-2.3,1.6-2.4,3.3-2.4,3.3s-3.5,0.5-3.4,2.4c0,0-4.2,0.2-3,2.6l-2.1,2.4"/>
<ellipse class="st3" cx="340.3" cy="118.6" rx="2.5" ry="2.4"/>
<line class="st3" x1="339.1" y1="116.5" x2="339.1" y2="116.5"/>
<polyline class="st3" points="339.1,116.2 340.6,109.5 341.9,116.3 "/>
<g>
	<path class="st4" d="M149.3,597.9h20.4c0,0,46.3,22.1,0,56.5h-20.4v-13.6l20.5-0.7c0,0,18.1-13.6,0-28.9l-20.5-0.3V597.9z"/>
	<path class="st4" d="M198.3,654.6l0-40.6c-0.3,0,19.1-38.9,41.5,0l1.2,39.8h-14l-0.5-39.5c0,0-8.2-13.6-16,1.4l0.3,38.9H198.3z"/>
	<path class="st4" d="M302.1,653.2v-39.1c0,0,19.7-38.8,41.5,0l0.7,39.1h-14v-38.8c0,0-8.2-13.6-16,1.4l0.3,37.4H302.1z"/>
	<path class="st4" d="M399.8,653.2v-38.8c0,0,19.7-38.8,41.5,0v38.8h-14l0.7-38.4c0,0-8.2-13.6-16,1.4l0.3,37.1H399.8z"/>
	<path class="st4" d="M290.9,597.8h-29.3c0,0-23.1,13.3,0,33.7h15c0,0,6.8,3.4,1,7.8h-28.9v14.2h32.7c0,0,20.8-19-0.7-32.6
		l-17.4-0.3c-1.2,1.7-6.3-6.9-0.7-9.2l28.3-0.3v-11.6V597.8z"/>
	<path class="st4" d="M351.1,597.8c6.1,0,28.6,0,28.6,0s18.4,6.8,6.8,28.3c0,0,5.2,1.6,4.1,27.5h-12.3l-0.7-17.3
		c0,0,0.7-6.8-4.1-4.4h-22.5v-10.6l26.9-0.3c0,0,4.1-5.4-0.7-9.2l-26.2-1V597.8z"/>
</g>
<path class="st3" d="M251,415.8c0,0,39.2,5.1,37-4.7"/>
<path class="st3" d="M384.7,419.3c0,0,17.7,8.7,39.6-7.4"/>
<path class="st3" d="M240,412.8c0,0-4.2,4.6-2.7,6.3c1.5,1.6,4.3,5.4,11.2,3"/>
<path class="st3" d="M224.1,240.3c0,0-19.7,20.9-23.3,28.4"/>
<path class="st3" d="M179.8,353.1c0,0,9.3,9.8,5.4,17.7"/>
<g>
	<g>
		<path class="st5" d="M167.1,367.5c1.8,0,3.5-0.7,5.2-1.2c0.4-0.1,0.8-0.2,1.2-0.3c0.5-0.1,0.9-0.3,1.4-0.5
			c0.8-0.3,1.5-0.7,2.3-1.1c1.5-0.8,3.1-1.7,3.6-3.4c0.1-0.3,0.1-0.6,0.2-0.9c0.1-0.5,0.3-1,0.2-1.5c0-0.3-0.1,0.5,0,0
			c0.2-1.4,0.1-0.5,0.1-0.5c0.1,0,0.2-1.4,0.2-1c0-0.2,0-0.3,0-0.5c-0.1-1.3-1.1-2.6-2.5-2.5c-1.3,0.1-2.6,1.1-2.5,2.5
			c0,0.1,0,0.6,0,0.2c0-0.4-0.1,0.1-0.1,0.2c-0.1,0.3,0,0.6-0.1,0.9c0.2-0.8,0,0.1,0,0.2c0,0,0,0.7-0.1,0.7c0.1-0.1,0.1-0.5,0,0
			c-0.1,0.3-0.1,0.5-0.1,0.8c-0.1,0.5,0.2-0.4,0.1-0.2c-0.1,0.2,0.4-0.4,0.1-0.1c-0.1,0.1-0.2,0.2-0.3,0.3c-0.1,0.2,0.5-0.3,0.2-0.1
			c-0.6,0.3-1.2,0.7-1.8,1c-0.6,0.3-1.2,0.6-1.9,0.9c0.2-0.1,0.2-0.1,0,0c-0.2,0-0.3,0.1-0.5,0.1c-0.3,0.1-0.7,0.1-1,0.2
			c-0.7,0.2-1.4,0.4-2.1,0.6c-0.4,0.1-0.7,0.2-1.1,0.3c-0.3,0.1-0.1,0.1,0,0c-0.1,0.1-0.5,0-0.6,0c-1.3,0-2.6,1.2-2.5,2.5
			C164.7,366.4,165.7,367.5,167.1,367.5L167.1,367.5z"/>
	</g>
</g>
<g>
	<g>
		<path class="st5" d="M181.3,357.5C181.3,357.4,181.3,357.4,181.3,357.5c-1.1,0.2-2.2,0.5-3.4,0.8c-0.9-0.6-0.2,0,0,0.5
			c0.3,0.6,0.7,1.1,1.1,1.6c-0.1-0.4,0-0.3,0.2,0.4c0.1,0.2,0.2,0.4,0.3,0.6c0.2,0.4,0.5,0.8,0.7,1.2c0.4,0.8,0.7,1.7,1,2.6
			c0.1,0.5,0.1,0.9,0.1,1.3c0,0.3,0,0.6,0,0.9c-0.1,0.6,0,0.6,0.2,0.1c0.3-0.3,0.6-0.6,0.9-0.9c0.2-0.2,0.5,0,0.3-0.1
			c-0.1-0.1-0.4,0-0.6,0c-0.6,0-1.3,0-1.9,0c-1.6,0-3.2,0-4.8,0c-1.4,0-2.7-0.1-4.1-0.3c-0.7-0.1-1.5-0.2-2.2-0.4
			c-0.3-0.1-0.6-0.1-0.9-0.2c-0.2,0-0.4-0.1-0.7-0.1c0.1,0,0.3,0,0.4,0.1c0.3,0.3,0.6,0.6,0.9,0.9c0-0.1-0.1-0.1-0.1-0.2
			c-0.1,1-0.3,2-0.4,3c-0.5,0.3-0.6,0.3-0.2,0.2c0.2,0,0.3-0.1,0.5-0.1c0.5-0.1,0.9-0.3,1.3-0.5c1-0.3,2-0.5,3-0.8
			c2-0.5,4.1-0.4,6-0.9c1.1-0.3,2.1-1,2.4-2.1c0.4-1.2,0-2.3-0.3-3.4c-0.3-1-0.7-2-1.1-2.9c-0.3-0.6-0.8-1.3-0.8-2c-1.7,0-3.3,0-5,0
			c0.1,2,0.9,4.1,1.8,5.8c0.4,0.9,0.7,1.8,1.2,2.7c0.4,0.8,1,1.3,1.3,2.1c0.7-1.3,1.4-2.5,2.2-3.8c0.1,0,0.7,0.3,0,0
			c-0.3-0.1-0.5-0.2-0.8-0.3c-0.6-0.2-1.1-0.5-1.6-0.8c-0.5-0.3-1.3-0.5-1.7-0.9c-0.2-0.2-0.4-0.6-0.7-0.8c-1.1-1.1-2.7-1.2-4.1-1.3
			c-1.5-0.2-2.9-0.3-4.4-0.3c-2.6,0-5.3-0.2-7.9,0.3c-1.3,0.3-2.6,0.4-4,0.6c-0.6,0.1-1.2,0.2-1.8,0.2c0.3,0,0.3,0,0,0
			c-0.3,0-0.7-0.1-0.2,0c0.4,0.2,0.7,0.4,1.1,0.6c0,0-0.1-0.1-0.1-0.1c0,1.2,0,2.4,0,3.5c-0.1,0.2-0.7,0.2-0.4,0.3
			c0.1,0,0.3-0.1,0.4-0.1c0.4-0.1,0.7-0.2,1-0.3c0.7-0.3,1.4-0.2,2.2-0.3c0.9-0.1,1.8-0.4,2.7-0.5c1-0.1,2,0,2.9,0
			c4,0,8.4,0.4,12.1-1.6c1.6-0.9,2.7-3.1,1.7-4.8c-1.2-2.1-3.3-1.2-5.1-0.8c-0.8,0.2-1.7,0.4-2.5,0.6c-0.6,0.2-1.7,0.3-2,0.3
			c-0.8,0.1-1.6-0.1-2.5,0c-0.8,0.1-1.6,0.3-2.4,0.5c-2,0.4-4.3,0.1-6.3,0.1c-1,0-2.2,0.1-3.2,0.3c-0.9,0.2-1.7,0.2-2.6,0.2
			c0.2,1.6,0.4,3.3,0.7,4.9c0.5-0.1,1-0.2,1.5-0.4c0.2-0.1,0.9-0.3,0.3-0.2c-0.1,0,0.9-0.1,0.6-0.1c1.2-0.2,2.3-0.3,3.6-0.3
			c2.2,0,4.5-0.1,6.7-0.1c2.2,0,4.6,0.1,6.7-0.5c0.9-0.3,2-0.6,3-0.9c1.1-0.4,2-0.5,3-1.3c1.3-1.2,0.7-3.9-1.1-4.2
			c-1.4-0.2-2.7,0.1-4.1,0.3c-1.4,0.2-2.8,0.4-4.2,0.8c-1.3,0.3-2.7,0.3-4,0.7c-1.5,0.5-2.7,1.8-3,3.4c-0.2,1.1-0.3,2.9,0.3,3.9
			c0.6,1.2,1.8,1.8,3,2.3c0.7,0.3,1.3,0.6,1.9,1c0.2,0.1,0.4,0.3,0.7,0.3c0.5,0.3,0.6,0,0.1-1.1c-0.4-0.6-0.4-1,0-1.3
			c0,0-0.4,0.2-0.7,0.3c-0.5,0.2-1,0.4-1.5,0.7c-1.3,1-1.9,3.5,0,4.3c0.6,0.3,1.2,0.3,1.8,0.4c0.4,0.1,0.9,0.3,1.3,0.4
			c1.1,0.3,2.3,0.2,3.5,0.4c3.1,0.6,4.4-3.8,1.3-4.8c-2-0.6-4-1.2-5.9-1.8c-0.9-0.3-1.9-0.4-2.8-0.7c-0.8-0.3-1.5-0.7-2.2-1.1
			c-1.8-0.9-3.8-1.4-5.7-2.2c-0.7-0.3-1.5-0.5-2.2-0.8c-0.4-0.2-0.7-0.5-1-0.7c-0.2-0.1-0.4-0.3-0.5-0.4c-0.1-0.1-0.2-0.2-0.4-0.3
			c0.3,0.2,0.3,0.2,0.1,0.1c-1.5-1.2-3.8-2.1-5.1,0c-0.6,1.1-0.4,2.5,0.4,3.4c0.6,0.6,1,0.8,1.5,1.2c1.4,1.2,2.7,2.6,4.4,3.4
			c0.9,0.4,1.8,0.8,2.7,1.2c0.9,0.5,1.7,1.1,2.6,1.5c2,0.8,4,1.3,6.1,1.6c1.1,0.1,2.3,0.3,3.3-0.1c1.2-0.4,2.2-1.3,3.1-2.1
			c1-0.9,0.9-2.6,0-3.5c-1-1-2.5-0.9-3.5,0c-0.4,0.3-0.7,0.6-1.2,0.8c0.1,0,0.2,0,0.3,0c-0.2,0-0.5,0-0.7,0c-0.8,0-1.6-0.1-2.3-0.3
			c-0.8-0.2-1.5-0.5-2.4-0.7c-0.6-0.2-0.7-0.2-1.1-0.4c-0.4-0.3-0.8-0.5-1.3-0.8c-1.5-0.8-3.3-1.2-4.6-2.4c-0.7-0.6-1.4-1.2-2.1-1.8
			c-0.3-0.2-0.6-0.4-0.8-0.7c-0.2-0.2-0.4-0.3-0.6-0.5c-0.3-0.2-0.3-0.2,0.3,0.3c0.1,0.6,0.2,1.3,0.3,1.9c0-0.1,0-0.1,0-0.2
			c-0.4,0.5-0.8,1-1.1,1.5c0,0,0.1-0.1,0.1-0.1c-0.4,0.1-0.8,0.2-1.3,0.3c-0.7,0-1.1-0.4-0.5,0c0.4,0.4,0.9,0.7,1.4,1
			c1,0.7,1.9,1.1,3.1,1.5c0.9,0.3,1.7,0.7,2.6,1.1c1,0.3,2,0.7,2.9,1.1c1,0.4,1.9,1,2.8,1.4c1,0.5,2.1,0.6,3.2,0.9
			c2.2,0.6,4.5,1.4,6.7,2.1c0.4-1.6,0.9-3.2,1.3-4.8c-0.6-0.1-1.2-0.2-1.9-0.3c-0.5-0.1-1.1,0-1.6-0.1c-0.4-0.1-0.8-0.3-1.3-0.4
			c-0.6-0.1-1.2-0.2-1.8-0.2c0.4,0.1,0.8,0.2,1.3,0.3c-0.1,0-0.1-0.1-0.2-0.1c0,1.4,0,2.9,0,4.3c0.1,0,0.6-0.3,0.2-0.1
			c0.1-0.1,0.3-0.1,0.5-0.2c0.5-0.2,1.1-0.4,1.6-0.7c1.3-0.8,2-2.2,1.7-3.8c-0.3-1.5-1.3-2.1-2.6-2.7c-0.7-0.3-1.4-0.7-2.1-1
			c-0.3-0.1-0.5-0.2-0.7-0.4c-0.1,0-0.2-0.1-0.3-0.1c-0.4-0.2-0.4-0.2,0,0.1c0.1,0.4,0.2,0.8,0.3,1.3c-0.1-0.4,0-0.8,0-1.2
			c0-0.1,0-0.7,0-0.7c0,0-0.3,0.9-0.5,0.7c0.1,0.1,1.2-0.3,1.3-0.3c0.8-0.1,1.5-0.1,2.2-0.3c1.1-0.2,2.1-0.5,3.2-0.7
			c0.5-0.1,0.9-0.1,1.3-0.1c0.3,0,0.7-0.1,1-0.2c-0.3,0.1,0.3-0.1,0.2-0.1c-0.4-1.4-0.7-2.8-1.1-4.2c0.8-0.3,0.7-0.4-0.1-0.2
			c-0.2,0-0.4,0.1-0.6,0.2c-0.5,0.2-0.9,0.3-1.4,0.5c-0.4,0.1-0.9,0.2-1.3,0.3c-0.7,0.3-0.8,0.4-0.4,0.1c-0.3,0-0.7,0.1-1,0.2
			c-1.9,0.4-4,0.3-6,0.2c-2,0-4.1,0.1-6.2,0.1c-2.3,0-4.1,0.6-6.2,1.2c-2.7,0.7-2.1,4.9,0.7,4.9c1.1,0,2.2,0,3.3-0.2
			c0.9-0.2,1.8-0.3,2.7-0.3c1.2,0,2.4,0,3.6,0c1.1,0,2.5,0,3.7-0.3c1.8-0.4,3.6-0.3,5.4-0.6c1-0.2,2-0.5,2.9-0.6
			c0.6-0.1,1.2-0.2,1.8-0.4c0.2-0.1,0.4-0.1,0.7-0.2c0.6-0.2,0.2,0.1-0.4-0.1c-0.5-0.4-1-0.8-1.5-1.1c0,0.1,0.1,0.1,0.1,0.2
			c-0.1-0.6-0.2-1.3-0.3-1.9c-0.1,0.3-0.1,0.5-0.2,0.8c0.2-0.4,0.4-0.7,0.6-1.1c-0.3,0.4-1.6,0.6-2.3,0.8c-0.9,0.3-1.7,0.3-2.7,0.3
			c-2.2,0-4.4,0-6.5,0c-1.1,0-2.2,0.1-3.3,0.4c-0.9,0.2-1.8,0.2-2.7,0.3c-0.8,0.1-1.5,0.4-2.3,0.6c-0.9,0.2-1.7,0.4-2.3,1.1
			c-0.9,1-1,2.5,0,3.5c0.9,0.9,2.1,1,3.2,0.8c1.3-0.1,2.7-0.2,4-0.4c1.2-0.2,2.5-0.6,3.7-0.7c1.4-0.1,2.9,0,4.4,0
			c1.5,0,3.1,0,4.6,0.2c0.3,0,1.8,0.4,1.9,0.3c0,0-0.9-1-0.1,0c0.2,0.2,0.3,0.4,0.5,0.6c1,0.9,2.5,1.6,3.7,2.2
			c1.2,0.6,2.5,1.4,3.8,1.3c2-0.2,2.9-2,2.2-3.8c-0.3-0.7-0.7-1.2-1.1-1.8c-0.5-0.7-0.7-1.6-1-2.3c-0.3-0.7-0.6-1.3-0.9-2.1
			c-0.2-0.6-0.6-1.3-0.6-2c-0.1-1.3-1.1-2.5-2.5-2.5c-1.3,0-2.6,1.1-2.5,2.5c0.2,2.8,2.1,5.2,2.5,8c0-0.4,0-0.9,0-1.3
			c0,0.1-0.1,0.3-0.1,0.4c0.2-0.4,0.4-0.7,0.6-1.1c0.3-0.3,0.5-0.2,0-0.2c-0.2,0-0.4,0.1-0.6,0.1c-0.6,0.1-1.2,0.1-1.7,0.2
			c-1.3,0.2-2.6,0.3-3.9,0.7c-1.1,0.3-2.3,0.6-3.5,1c-1,0.3-2,0.5-2.8,1.3c-0.8,0.9-0.9,2-0.4,3c0.4,0.8,1.2,1.3,2,1.5
			c0.2,0.1,1.3,0.2,0.7,0.1c0.4,0.1,0.9,0.2,1.3,0.3c1.8,0.3,3.7,0.7,5.6,0.7c1.8,0.1,3.6,0,5.4,0c1.4,0,3.1,0.3,4.5-0.1
			c3.9-0.9,2.4-6.5,1.6-9.1c-0.5-1.6-1.3-3-2.2-4.4c-0.4-0.7-0.9-1.3-1.3-2c-0.4-0.7-0.8-1.3-1.6-1.8c-1.2-0.8-2.7-0.1-3.4,0.9
			c0,0,0,0.1-0.1,0.1c-0.8,1.1-0.2,2.8,0.9,3.4C179.1,359.1,180.5,358.6,181.3,357.5L181.3,357.5z"/>
	</g>
</g>
</svg>
